<svg xmlns="http://www.w3.org/2000/svg" viewBox="0 0 1924.58 1082.87"><title>bg-dark-search</title><g id="Layer_2" data-name="Layer 2"><g id="Layer_1-2" data-name="Layer 1"><rect x="2.2" y="1.3" width="1920" height="1080" fill="#00171f" stroke="#000" stroke-miterlimit="10"/><path d="M2.2,227.12C77.1,89.48,179.42-1.91,205,8c32.09,12.43-59.44,183.49,30.42,300.17,70.87,92,238.26,129,344.79,68.95C732.64,291.19,675,54.74,783,20.17,909.72-20.39,1015.5,296.4,1259.63,316.28c205.68,16.74,278.85-196,446.2-162.26,80.22,16.2,159.56,84.5,216.38,176.34" fill="none" stroke="#003459" stroke-miterlimit="10" stroke-width="5"/><path d="M1922.2,844.6c-89.83,114.18-237.77,186.64-330,147.18-105.69-45.25-72-209.37-174.42-251.5C1314.05,697.59,1223.35,843,1000,947.16c-65.32,30.45-401.3,178.29-718,44.62C234,971.5,93.86,912.34,2.2,782.59" fill="none" stroke="#003459" stroke-miterlimit="10" stroke-width="5"/><path d="M1486.65,1078.05c-96.5-66.75-212.92-125.4-356.24-154.92C642.65,822.66,303.34,1154.24,112.27,965.72-22.83,832.43,36.66,558,49.4,499.25c12.5-57.68,62.88-290.1,204.84-326.54,99.45-25.53,131.13,74,277.86,97.35,199.52,31.69,261.14-133.33,561.8-176.45,82.9-11.89,214.27-29.14,352.9,28.4,92.15,38.24,195.84,113,310.31,306.25,64.56,109,121.68,237.32,165.1,364.72" fill="none" stroke="#003459" stroke-miterlimit="10" stroke-width="5"/><path d="M1615.33,1.3c58.22,188.76,53.36,334.84,37.33,435.07-33,206.43-125.12,292-158.19,514.14A974.52,974.52,0,0,0,1484,1077.4" fill="none" stroke="#003459" stroke-miterlimit="10" stroke-width="5"/><path d="M2.2,765.3c147.8,7.25,291-4.7,321-76.42,26.56-63.52-55.1-127.43-88.23-246.42C205,334.73,217.59,191.93,333.23,1.3" fill="none" stroke="#003459" stroke-miterlimit="10" stroke-width="5"/><path d="M2.2,619.14c327.43-103.51,442.66-84.68,476.15-33.7,34.93,53.15-29.66,125-21.29,252.51,6.09,92.88,48.2,174.25,104.32,243.35" fill="none" stroke="#003459" stroke-miterlimit="10" stroke-width="5"/></g></g></svg>