<?xml version="1.0" encoding="utf-8"?>
<!-- Generator: Adobe Illustrator 23.0.3, SVG Export Plug-In . SVG Version: 6.00 Build 0)  -->
<svg version="1.1" id="Layer_1" xmlns="http://www.w3.org/2000/svg" xmlns:xlink="http://www.w3.org/1999/xlink" x="0px" y="0px"
	 viewBox="0 0 1921.8 1082.2" style="enable-background:new 0 0 1921.8 1082.2;" xml:space="preserve">
<style type="text/css">
	.st0{fill:#00171F;stroke:#000000;stroke-miterlimit:10;}
	.st1{fill:none;stroke:#003459;stroke-width:5;stroke-miterlimit:10;}
	.st2{fill:#00171F;stroke:#003459;stroke-width:5;stroke-miterlimit:10;}
</style>
<title>bg-dark</title>
<rect x="1.3" y="1.6" class="st0" width="1920" height="1080"/>
<path class="st1" d="M86.7,1081.7V875.4c0-22.6,18.3-40.9,40.9-40.9h947.7c22.6,0,40.9,18.3,40.9,40.9v206.2"/>
<path class="st1" d="M1615.2,635.6h169.4c38.4,0,69.5,31.1,69.5,69.5V838c0,38.4-31.1,69.5-69.5,69.5h-169.4
	c-38.4,0-69.5-31.1-69.5-69.5V705.1C1545.7,666.7,1576.8,635.6,1615.2,635.6z"/>
<path class="st1" d="M435.5,1.6c13.1,14.9,20.3,34.1,20.3,54v48.7c0,45.4-36.8,82.1-82.1,82.1l0,0H45.1c-15.5,0-30.6-4.3-43.7-12.6"
	/>
<path class="st1" d="M1921.3,678.3H1068c-52.9,0-95.8-42.9-95.8-95.8l0,0V23.7c0-6.5,0.6-13,1.9-19.3"/>
<rect x="12.3" y="1205.6" class="st0" width="1920" height="1080"/>
<path class="st2" d="M1932.3,2235.3h-779.2c-34.3,0-62.4-28.1-62.4-62.4v-91.3c0-34.3,28.1-62.4,62.4-62.4h779.2"/>
<path class="st2" d="M1932.3,1592.5h-383.8c-34.3,0-62.4-28.1-62.4-62.4v-324.6"/>
<path class="st2" d="M12.3,1558.4h381.1c34.3,0,62.4,28.1,62.4,62.4v382.3c0,34.3-28.1,62.4-62.4,62.4H12.3"/>
<rect x="29.3" y="2409.7" class="st0" width="1920" height="1080"/>
<path class="st1" d="M29.3,2635.5c74.9-137.6,177.2-229,202.8-219.1c32.1,12.4-59.4,183.5,30.4,300.2c70.9,92,238.3,129,344.8,69
	c152.4-85.9,94.8-322.4,202.8-357c126.7-40.6,232.5,276.2,476.6,296.1c205.7,16.7,278.8-196,446.2-162.3
	c80.2,16.2,159.6,84.5,216.4,176.3"/>
<path class="st1" d="M1949.3,3253c-89.8,114.2-237.8,186.6-330,147.2c-105.7-45.2-72-209.4-174.4-251.5
	c-103.8-42.7-194.5,102.7-417.8,206.9c-65.3,30.5-401.3,178.3-718,44.6c-48-20.3-188.2-79.4-279.9-209.2"/>
<path class="st1" d="M1513.7,3486.5c-96.5-66.8-212.9-125.4-356.2-154.9c-487.8-100.5-827.1,231.1-1018.1,42.6
	c-135.1-133.3-75.6-407.7-62.9-466.5c12.5-57.7,62.9-290.1,204.8-326.5c99.4-25.5,131.1,74,277.9,97.4
	c199.5,31.7,261.1-133.3,561.8-176.5c82.9-11.9,214.3-29.1,352.9,28.4c92.1,38.2,195.8,113,310.3,306.3
	c64.6,109,121.7,237.3,165.1,364.7"/>
<path class="st1" d="M1642.4,2409.7c58.2,188.8,53.4,334.8,37.3,435.1c-33,206.4-125.1,292-158.2,514.1
	c-6.6,44.1-9.8,86.5-10.4,126.9"/>
<path class="st1" d="M29.3,3173.7c147.8,7.2,291-4.7,321-76.4c26.6-63.5-55.1-127.4-88.2-246.4c-30-107.7-17.4-250.5,98.3-441.2"/>
<path class="st1" d="M508.5,3024.3"/>
<path class="st1" d="M29.3,3027.5c327.4-103.5,442.7-84.7,476.2-33.7c34.9,53.2-29.7,125-21.3,252.5
	c6.1,92.9,48.2,174.3,104.3,243.3"/>
</svg>
