<svg id="Layer_1" data-name="Layer 1" xmlns="http://www.w3.org/2000/svg" viewBox="0 0 1921.84 1086.34"><title>bg-light</title><rect x="1.34" y="5.84" width="1920" height="1080" fill="#007ea7" stroke="#000" stroke-miterlimit="10"/><path d="M85.21,1081.27V875a40.94,40.94,0,0,1,40.94-40.94h947.66A40.94,40.94,0,0,1,1114.75,875v206.23" transform="translate(1.5 4.57)" fill="none" stroke="#00a8e8" stroke-miterlimit="10" stroke-width="5"/><rect x="1545.72" y="639.83" width="308.28" height="271.77" rx="69.46" fill="none" stroke="#00a8e8" stroke-miterlimit="10" stroke-width="5"/><path d="M430.2-2.8a81.85,81.85,0,0,1,24.06,58.08V104a82.14,82.14,0,0,1-82.14,82.14H43.56A81.75,81.75,0,0,1-.17,173.5" transform="translate(1.5 4.57)" fill="none" stroke="#00a8e8" stroke-miterlimit="10" stroke-width="5"/><path d="M1919.83,677.93H1066.58a95.83,95.83,0,0,1-95.83-95.83V23.34A96.79,96.79,0,0,1,972.69,4" transform="translate(1.5 4.57)" fill="none" stroke="#00a8e8" stroke-miterlimit="10" stroke-width="5"/></svg>